<?xml version="1.0" encoding="UTF-8"?>
<svg xmlns="http://www.w3.org/2000/svg" xmlns:xlink="http://www.w3.org/1999/xlink" width="533.06pt" height="524.51pt" viewBox="0 0 533.06 524.51" version="1.1">
<defs>
<clipPath id="clip1">
  <path d="M 256 476 L 294 476 L 294 524.511719 L 256 524.511719 Z M 256 476 "/>
</clipPath>
<clipPath id="clip2">
  <path d="M 499 233 L 533.058594 233 L 533.058594 282 L 499 282 Z M 499 233 "/>
</clipPath>
</defs>
<g id="surface1">
<path style=" stroke:none;fill-rule:nonzero;fill:rgb(24.299622%,37.298584%,61.199951%);fill-opacity:1;" d="M 99.160156 146.046875 L 55.179688 108.234375 L 81.175781 77.996094 L 88.566406 84.355469 L 70.234375 105.683594 L 80.753906 114.726563 L 96.5625 96.339844 L 103.957031 102.695313 L 88.148438 121.082031 L 106.820313 137.136719 L 99.160156 146.046875 "/>
<path style=" stroke:none;fill-rule:nonzero;fill:rgb(24.299622%,37.298584%,61.199951%);fill-opacity:1;" d="M 147.480469 72.179688 L 158.761719 68.390625 C 161.066406 74.597656 161.476563 80.140625 159.988281 85.023438 C 158.503906 89.90625 155.226563 94.164063 150.160156 97.804688 C 143.890625 102.304688 137.199219 103.863281 130.089844 102.476563 C 122.976563 101.089844 116.75 96.679688 111.414063 89.25 C 105.769531 81.390625 103.414063 73.828125 104.355469 66.5625 C 105.289063 59.300781 109.066406 53.289063 115.683594 48.539063 C 121.460938 44.390625 127.382813 42.726563 133.441406 43.546875 C 137.035156 44.019531 140.726563 45.761719 144.515625 48.765625 L 136.675781 57.777344 C 134.359375 55.734375 131.808594 54.640625 129.023438 54.492188 C 126.234375 54.347656 123.574219 55.183594 121.039063 57.003906 C 117.542969 59.515625 115.609375 62.8125 115.238281 66.894531 C 114.867188 70.972656 116.707031 75.832031 120.753906 81.46875 C 125.050781 87.449219 129.179688 90.941406 133.144531 91.9375 C 137.113281 92.9375 140.8125 92.203125 144.246094 89.738281 C 146.773438 87.925781 148.371094 85.554688 149.03125 82.628906 C 149.695313 79.703125 149.175781 76.222656 147.480469 72.179688 "/>
<path style=" stroke:none;fill-rule:nonzero;fill:rgb(24.299622%,37.298584%,61.199951%);fill-opacity:1;" d="M 186.554688 54.140625 L 197.207031 49.996094 C 198.898438 53.5 200.988281 55.835938 203.488281 57 C 205.984375 58.164063 208.945313 58.269531 212.367188 57.3125 C 215.988281 56.300781 218.507813 54.769531 219.914063 52.71875 C 221.320313 50.664063 221.738281 48.609375 221.164063 46.550781 C 220.796875 45.226563 220.09375 44.210938 219.0625 43.496094 C 218.03125 42.785156 216.457031 42.355469 214.339844 42.203125 C 212.894531 42.113281 209.664063 42.136719 204.652344 42.269531 C 198.203125 42.449219 193.460938 41.785156 190.414063 40.273438 C 186.136719 38.144531 183.378906 34.863281 182.140625 30.429688 C 181.34375 27.578125 181.402344 24.683594 182.320313 21.75 C 183.238281 18.816406 185.035156 16.277344 187.707031 14.128906 C 190.375 11.984375 193.855469 10.3125 198.148438 9.113281 C 205.15625 7.15625 210.863281 7.234375 215.273438 9.351563 C 219.679688 11.46875 222.699219 15.097656 224.324219 20.230469 L 213.109375 23.753906 C 211.828125 21.019531 210.222656 19.246094 208.292969 18.429688 C 206.367188 17.617188 203.824219 17.648438 200.667969 18.53125 C 197.410156 19.441406 195.046875 20.828125 193.578125 22.6875 C 192.628906 23.886719 192.359375 25.203125 192.765625 26.652344 C 193.132813 27.972656 194.007813 28.945313 195.382813 29.574219 C 197.132813 30.375 200.925781 30.660156 206.757813 30.433594 C 212.585938 30.203125 217.007813 30.421875 220.015625 31.078125 C 223.023438 31.738281 225.605469 33.066406 227.761719 35.066406 C 229.914063 37.0625 231.488281 39.835938 232.480469 43.386719 C 233.378906 46.601563 233.328125 49.859375 232.339844 53.164063 C 231.34375 56.46875 229.414063 59.253906 226.546875 61.527344 C 223.675781 63.800781 219.820313 65.613281 214.972656 66.96875 C 207.914063 68.941406 202.035156 68.8125 197.339844 66.589844 C 192.640625 64.363281 189.046875 60.214844 186.554688 54.140625 "/>
<path style=" stroke:none;fill-rule:nonzero;fill:rgb(24.299622%,37.298584%,61.199951%);fill-opacity:1;" d="M 295.703125 57.433594 L 283.066406 57.730469 L 277.769531 44.726563 L 254.464844 45.273438 L 250.011719 58.507813 L 237.597656 58.796875 L 258.597656 0.289063 L 271.09375 -0.00390625 L 295.703125 57.433594 M 273.835938 35.066406 L 265.105469 13.640625 L 257.769531 35.445313 L 273.835938 35.066406 "/>
<path style=" stroke:none;fill-rule:nonzero;fill:rgb(24.299622%,37.298584%,61.199951%);fill-opacity:1;" d="M 302.386719 58.925781 L 316.914063 2.773438 L 340.742188 8.941406 C 346.738281 10.492188 350.960938 12.121094 353.414063 13.832031 C 355.871094 15.542969 357.582031 17.898438 358.546875 20.894531 C 359.511719 23.894531 359.566406 27.050781 358.710938 30.363281 C 357.621094 34.574219 355.503906 37.734375 352.355469 39.847656 C 349.207031 41.957031 345.117188 42.742188 340.078125 42.199219 C 342.121094 44.261719 343.710938 46.347656 344.839844 48.46875 C 345.972656 50.585938 347.304688 54.179688 348.839844 59.242188 L 352.851563 71.980469 L 339.457031 68.515625 L 334.511719 54.074219 C 332.691406 48.980469 331.386719 45.730469 330.597656 44.320313 C 329.804688 42.914063 328.859375 41.84375 327.753906 41.109375 C 326.652344 40.378906 324.785156 39.671875 322.15625 38.992188 L 319.835938 38.390625 L 313.761719 61.867188 L 302.386719 58.925781 M 322.152344 29.4375 L 330.484375 31.59375 C 335.886719 32.988281 339.316406 33.632813 340.78125 33.519531 C 342.246094 33.40625 343.503906 32.886719 344.554688 31.957031 C 345.605469 31.027344 346.351563 29.722656 346.789063 28.03125 C 347.28125 26.136719 347.175781 24.476563 346.472656 23.054688 C 345.773438 21.628906 344.546875 20.527344 342.804688 19.75 C 341.921875 19.386719 339.199219 18.613281 334.636719 17.429688 L 325.847656 15.15625 L 322.152344 29.4375 "/>
<path style=" stroke:none;fill-rule:nonzero;fill:rgb(24.299622%,37.298584%,61.199951%);fill-opacity:1;" d="M 366.808594 80.410156 L 389.652344 37.910156 L 374.566406 29.804688 L 379.183594 21.214844 L 419.699219 42.992188 L 415.085938 51.578125 L 400 43.472656 L 377.160156 85.972656 L 366.808594 80.410156 "/>
<path style=" stroke:none;fill-rule:nonzero;fill:rgb(24.299622%,37.298584%,61.199951%);fill-opacity:1;" d="M 398.882813 100.316406 L 434.976563 54.914063 L 444.175781 62.226563 L 408.082031 107.628906 L 398.882813 100.316406 "/>
<path style=" stroke:none;fill-rule:nonzero;fill:rgb(24.299622%,37.298584%,61.199951%);fill-opacity:1;" d="M 462.929688 78.046875 L 476.726563 94.410156 C 479.839844 98.101563 481.925781 101.152344 482.996094 103.566406 C 484.421875 106.8125 484.9375 110.1875 484.546875 113.691406 C 484.152344 117.195313 482.949219 120.628906 480.933594 123.984375 C 478.914063 127.339844 475.828125 130.769531 471.675781 134.273438 C 468.027344 137.347656 464.496094 139.546875 461.089844 140.867188 C 456.929688 142.476563 452.980469 143.097656 449.253906 142.722656 C 446.433594 142.445313 443.484375 141.34375 440.410156 139.414063 C 438.117188 137.964844 435.578125 135.585938 432.789063 132.28125 L 418.585938 115.429688 L 462.929688 78.046875 M 463.050781 93.316406 L 433.613281 118.128906 L 439.238281 124.800781 C 441.339844 127.296875 443 128.976563 444.214844 129.84375 C 445.800781 130.984375 447.429688 131.667969 449.105469 131.890625 C 450.777344 132.113281 452.867188 131.691406 455.367188 130.613281 C 457.863281 129.539063 460.835938 127.554688 464.269531 124.65625 C 467.703125 121.761719 470.085938 119.234375 471.417969 117.082031 C 472.746094 114.925781 473.46875 112.871094 473.585938 110.917969 C 473.699219 108.960938 473.234375 106.996094 472.191406 105.019531 C 471.421875 103.53125 469.503906 100.96875 466.433594 97.328125 L 463.050781 93.316406 "/>
<path style=" stroke:none;fill-rule:nonzero;fill:rgb(32.499695%,53.29895%,77.999878%);fill-opacity:1;" d="M 361.5 184.714844 C 345.296875 147.441406 308.699219 121.4375 266.144531 121.4375 C 208.566406 121.4375 161.890625 169.039063 161.890625 227.757813 C 161.890625 286.476563 208.566406 334.074219 266.144531 334.074219 L 278.777344 334.074219 C 303.339844 334.074219 315.617188 319.554688 315.617188 301.804688 C 315.617188 284.058594 297.191406 269.535156 278.777344 269.535156 L 265.371094 269.539063 C 242.714844 269.410156 224.28125 250.230469 224.410156 226.921875 C 224.535156 203.613281 243.171875 184.648438 265.828125 184.777344 L 361.53125 184.78125 L 361.5 184.714844 "/>
<path style=" stroke:none;fill-rule:nonzero;fill:rgb(32.499695%,53.29895%,77.999878%);fill-opacity:1;" d="M 381.964844 129.246094 C 406.964844 139.625 427.125 159.613281 438.035156 184.714844 L 438.066406 184.78125 L 381.890625 184.78125 L 381.890625 129.222656 L 381.964844 129.246094 "/>
<path style=" stroke:none;fill-rule:nonzero;fill:rgb(32.499695%,53.29895%,77.999878%);fill-opacity:1;" d="M 347.386719 121.453125 L 184.886719 121.453125 L 184.941406 121.386719 C 204.054688 97.21875 233.328125 81.753906 266.144531 81.753906 C 298.96875 81.753906 328.25 97.226563 347.359375 121.40625 L 347.386719 121.453125 "/>
<path style=" stroke:none;fill-rule:nonzero;fill:rgb(24.299622%,37.298584%,61.199951%);fill-opacity:1;" d="M 182.285156 354.351563 C 198.484375 391.625 235.085938 417.628906 277.640625 417.628906 C 335.214844 417.628906 381.894531 370.027344 381.894531 311.308594 C 381.894531 252.589844 335.214844 204.988281 277.640625 204.988281 L 265.007813 204.988281 C 240.445313 204.988281 228.167969 219.511719 228.167969 237.261719 C 228.167969 255.007813 246.59375 269.527344 265.007813 269.527344 L 278.414063 269.527344 C 301.066406 269.65625 319.5 288.835938 319.375 312.144531 C 319.25 335.453125 300.609375 354.417969 277.957031 354.289063 L 182.253906 354.285156 L 182.285156 354.351563 "/>
<path style=" stroke:none;fill-rule:nonzero;fill:rgb(24.299622%,37.298584%,61.199951%);fill-opacity:1;" d="M 381.941406 210.574219 C 423.117188 224.785156 452.757813 264.519531 452.757813 311.308594 C 452.757813 358.097656 423.117188 397.828125 381.941406 412.039063 L 381.890625 412.066406 L 381.890625 210.550781 L 381.941406 210.574219 "/>
<path style=" stroke:none;fill-rule:nonzero;fill:rgb(24.299622%,37.298584%,61.199951%);fill-opacity:1;" d="M 358.839844 417.683594 C 339.726563 441.851563 310.453125 457.3125 277.640625 457.3125 C 244.820313 457.3125 215.546875 441.847656 196.433594 417.675781 L 196.386719 417.613281 L 358.886719 417.613281 L 358.839844 417.683594 "/>
<path style=" stroke:none;fill-rule:nonzero;fill:rgb(24.299622%,37.298584%,61.199951%);fill-opacity:1;" d="M 161.574219 354.285156 L 105.71875 354.285156 L 105.746094 354.351563 C 116.660156 379.457031 136.828125 399.449219 161.835938 409.828125 L 161.890625 409.847656 L 161.890625 354.285156 L 161.574219 354.285156 "/>
<path style=" stroke:none;fill-rule:nonzero;fill:rgb(32.499695%,53.29895%,77.999878%);fill-opacity:1;" d="M 161.835938 127.027344 C 120.664063 141.238281 91.023438 180.96875 91.023438 227.757813 C 91.023438 274.546875 120.664063 314.28125 161.839844 328.488281 L 161.890625 328.503906 L 161.890625 127.003906 L 161.835938 127.027344 "/>
<path style=" stroke:none;fill-rule:nonzero;fill:rgb(24.299622%,37.298584%,61.199951%);fill-opacity:1;" d="M 64.421875 390.988281 L 70.453125 398.054688 C 68.277344 400.269531 67.09375 402.484375 66.90625 404.710938 C 66.71875 406.929688 67.457031 409.230469 69.128906 411.609375 C 70.898438 414.128906 72.753906 415.65625 74.703125 416.195313 C 76.644531 416.734375 78.324219 416.511719 79.726563 415.523438 C 80.628906 414.890625 81.210938 414.082031 81.464844 413.101563 C 81.722656 412.121094 81.617188 410.800781 81.148438 409.140625 C 80.828125 408 79.9375 405.519531 78.472656 401.699219 C 76.585938 396.785156 75.8125 392.949219 76.152344 390.195313 C 76.625 386.324219 78.402344 383.308594 81.480469 381.144531 C 83.460938 379.753906 85.703125 379.011719 88.210938 378.910156 C 90.714844 378.8125 93.15625 379.496094 95.527344 380.957031 C 97.902344 382.417969 100.128906 384.628906 102.210938 387.59375 C 105.609375 392.429688 107.097656 396.824219 106.679688 400.769531 C 106.257813 404.71875 104.308594 408.003906 100.828125 410.632813 L 95.0625 403.074219 C 96.824219 401.339844 97.761719 399.613281 97.871094 397.90625 C 97.976563 396.195313 97.261719 394.246094 95.722656 392.058594 C 94.136719 389.800781 92.425781 388.359375 90.589844 387.742188 C 89.410156 387.34375 88.316406 387.496094 87.304688 388.207031 C 86.382813 388.851563 85.863281 389.792969 85.75 391.023438 C 85.609375 392.589844 86.414063 395.585938 88.164063 400.007813 C 89.914063 404.429688 90.949219 407.886719 91.265625 410.371094 C 91.582031 412.859375 91.265625 415.203125 90.324219 417.394531 C 89.382813 419.589844 87.6875 421.542969 85.242188 423.261719 C 83.023438 424.820313 80.515625 425.664063 77.714844 425.792969 C 74.914063 425.921875 72.253906 425.195313 69.734375 423.609375 C 67.21875 422.019531 64.777344 419.550781 62.421875 416.195313 C 58.992188 411.3125 57.480469 406.773438 57.890625 402.578125 C 58.300781 398.382813 60.476563 394.519531 64.421875 390.988281 "/>
<path style=" stroke:none;fill-rule:nonzero;fill:rgb(24.299622%,37.298584%,61.199951%);fill-opacity:1;" d="M 88.75 448.160156 L 119.507813 412.292969 L 130.414063 421.648438 L 115.84375 451.609375 L 143.222656 432.628906 L 154.140625 441.992188 L 123.382813 477.859375 L 116.644531 472.082031 L 140.808594 443.808594 L 109.488281 465.945313 L 102.542969 459.988281 L 119.746094 425.742188 L 95.484375 453.9375 L 88.75 448.160156 "/>
<path style=" stroke:none;fill-rule:nonzero;fill:rgb(24.299622%,37.298584%,61.199951%);fill-opacity:1;" d="M 143.820313 490.539063 L 164.75 448.175781 L 196.128906 463.675781 L 192.585938 470.851563 L 169.722656 459.554688 L 165.074219 468.96875 L 186.367188 479.488281 L 182.824219 486.660156 L 161.53125 476.140625 L 155.882813 487.574219 L 179.53125 499.253906 L 175.988281 506.429688 L 143.820313 490.539063 "/>
<path style=" stroke:none;fill-rule:nonzero;fill:rgb(24.299622%,37.298584%,61.199951%);fill-opacity:1;" d="M 207.324219 467.789063 L 224.285156 471.628906 C 228.105469 472.496094 230.953125 473.449219 232.828125 474.488281 C 235.34375 475.894531 237.332031 477.832031 238.796875 480.300781 C 240.257813 482.769531 241.15625 485.589844 241.492188 488.761719 C 241.828125 491.933594 241.507813 495.675781 240.53125 499.992188 C 239.671875 503.789063 238.460938 506.949219 236.898438 509.480469 C 234.988281 512.574219 232.734375 514.917969 230.136719 516.507813 C 228.171875 517.714844 225.71875 518.449219 222.78125 518.710938 C 220.585938 518.898438 217.777344 518.601563 214.347656 517.824219 L 196.890625 513.871094 L 207.324219 467.789063 M 214.824219 477.6875 L 207.921875 508.167969 L 214.839844 509.734375 C 217.425781 510.320313 219.328125 510.597656 220.542969 510.5625 C 222.128906 510.527344 223.523438 510.171875 224.714844 509.496094 C 225.910156 508.820313 227.054688 507.523438 228.148438 505.605469 C 229.242188 503.683594 230.191406 500.945313 230.996094 497.386719 C 231.800781 493.832031 232.105469 491.03125 231.914063 488.984375 C 231.71875 486.9375 231.175781 485.253906 230.292969 483.929688 C 229.40625 482.609375 228.140625 481.5625 226.492188 480.792969 C 225.265625 480.207031 222.761719 479.488281 218.988281 478.632813 L 214.824219 477.6875 "/>
<g clip-path="url(#clip1)" clip-rule="nonzero">
<path style=" stroke:none;fill-rule:nonzero;fill:rgb(24.299622%,37.298584%,61.199951%);fill-opacity:1;" d="M 257.453125 524.511719 L 256.960938 477.261719 L 291.960938 476.898438 L 292.042969 484.898438 L 266.542969 485.164063 L 266.652344 495.664063 L 290.402344 495.417969 L 290.484375 503.417969 L 266.734375 503.664063 L 266.867188 516.414063 L 293.242188 516.140625 L 293.324219 524.136719 L 257.453125 524.511719 "/>
</g>
<path style=" stroke:none;fill-rule:nonzero;fill:rgb(24.299622%,37.298584%,61.199951%);fill-opacity:1;" d="M 315.359375 521.371094 L 303.925781 475.527344 L 323.335938 470.6875 C 328.21875 469.46875 331.867188 468.996094 334.285156 469.269531 C 336.703125 469.539063 338.839844 470.5625 340.691406 472.335938 C 342.546875 474.105469 343.8125 476.347656 344.484375 479.054688 C 345.34375 482.492188 345.046875 485.582031 343.59375 488.324219 C 342.144531 491.066406 339.488281 493.226563 335.636719 494.804688 C 337.925781 495.476563 339.894531 496.347656 341.542969 497.421875 C 343.191406 498.496094 345.5625 500.542969 348.65625 503.558594 L 356.476563 511.117188 L 345.414063 513.878906 L 336.261719 505.5625 C 333 502.578125 330.8125 500.734375 329.707031 500.019531 C 328.601563 499.308594 327.515625 498.902344 326.453125 498.800781 C 325.390625 498.699219 323.792969 498.914063 321.671875 499.445313 L 319.800781 499.910156 L 324.578125 519.074219 L 315.359375 521.371094 M 317.984375 492.632813 L 324.78125 490.9375 C 329.1875 489.839844 331.890625 488.964844 332.894531 488.316406 C 333.898438 487.667969 334.59375 486.804688 334.984375 485.734375 C 335.378906 484.664063 335.402344 483.4375 335.058594 482.058594 C 334.671875 480.515625 333.953125 479.371094 332.898438 478.625 C 331.84375 477.878906 330.542969 477.566406 328.988281 477.6875 C 328.21875 477.769531 325.972656 478.273438 322.25 479.203125 L 315.082031 480.992188 L 317.984375 492.632813 "/>
<path style=" stroke:none;fill-rule:nonzero;fill:rgb(24.299622%,37.298584%,61.199951%);fill-opacity:1;" d="M 374.335938 503.546875 L 352.492188 461.648438 L 383.527344 445.46875 L 387.226563 452.5625 L 364.613281 464.351563 L 369.46875 473.660156 L 390.527344 462.679688 L 394.226563 469.773438 L 373.167969 480.753906 L 379.0625 492.0625 L 402.449219 479.867188 L 406.148438 486.960938 L 374.335938 503.546875 "/>
<path style=" stroke:none;fill-rule:nonzero;fill:rgb(24.299622%,37.298584%,61.199951%);fill-opacity:1;" d="M 433.175781 466.886719 L 389.835938 441.765625 L 397.699219 435.050781 L 429.433594 453.976563 L 415.539063 419.820313 L 423.203125 413.277344 L 441.0625 460.15625 L 433.175781 466.886719 "/>
<path style=" stroke:none;fill-rule:nonzero;fill:rgb(24.299622%,37.298584%,61.199951%);fill-opacity:1;" d="M 446.773438 422.886719 C 442.855469 420.070313 439.984375 417.125 438.164063 414.042969 C 436.828125 411.761719 435.925781 409.304688 435.453125 406.675781 C 434.980469 404.046875 435.011719 401.5625 435.554688 399.222656 C 436.253906 396.101563 437.730469 392.976563 439.976563 389.847656 C 444.039063 384.1875 449.050781 380.921875 455.007813 380.050781 C 460.96875 379.179688 467.078125 380.992188 473.34375 385.488281 C 479.558594 389.949219 483.210938 395.128906 484.300781 401.019531 C 485.386719 406.910156 483.90625 412.679688 479.855469 418.320313 C 475.753906 424.035156 470.746094 427.324219 464.835938 428.1875 C 458.921875 429.054688 452.902344 427.285156 446.773438 422.886719 M 452.269531 414.675781 C 456.640625 417.816406 460.679688 419.195313 464.375 418.808594 C 468.070313 418.421875 471.027344 416.683594 473.246094 413.597656 C 475.460938 410.507813 476.164063 407.171875 475.34375 403.582031 C 474.527344 399.996094 471.878906 396.59375 467.402344 393.378906 C 462.976563 390.203125 458.984375 388.796875 455.421875 389.160156 C 451.859375 389.527344 448.933594 391.304688 446.640625 394.496094 C 444.347656 397.6875 443.605469 401.054688 444.40625 404.589844 C 445.207031 408.125 447.828125 411.488281 452.269531 414.675781 "/>
<path style=" stroke:none;fill-rule:nonzero;fill:rgb(24.299622%,37.298584%,61.199951%);fill-opacity:1;" d="M 20.75 281.027344 L 11.75 281.027344 L 11.75 246.890625 C 8.425781 249.992188 4.511719 252.289063 0 253.777344 L 0 245.527344 C 2.363281 244.753906 4.929688 243.28125 7.699219 241.113281 C 10.46875 238.945313 12.371094 236.421875 13.40625 233.527344 L 20.75 233.527344 L 20.75 281.027344 "/>
<path style=" stroke:none;fill-rule:nonzero;fill:rgb(24.299622%,37.298584%,61.199951%);fill-opacity:1;" d="M 35.308594 270.121094 L 44.058594 269.152344 C 44.269531 270.9375 44.824219 272.257813 45.71875 273.117188 C 46.613281 273.976563 47.796875 274.402344 49.265625 274.402344 C 51.117188 274.402344 52.691406 273.539063 53.992188 271.808594 C 55.292969 270.078125 56.121094 266.5 56.484375 261.066406 C 54.210938 263.710938 51.367188 265.027344 47.957031 265.027344 C 44.242188 265.027344 41.039063 263.597656 38.347656 260.722656 C 35.652344 257.855469 34.308594 254.121094 34.308594 249.519531 C 34.308594 244.726563 35.726563 240.863281 38.570313 237.929688 C 41.414063 234.996094 45.03125 233.527344 49.429688 233.527344 C 54.210938 233.527344 58.136719 235.386719 61.207031 239.097656 C 64.273438 242.8125 65.808594 248.921875 65.808594 257.425781 C 65.808594 266.082031 64.214844 272.324219 61.027344 276.15625 C 57.84375 279.988281 53.695313 281.902344 48.585938 281.902344 C 44.90625 281.902344 41.933594 280.921875 39.667969 278.949219 C 37.402344 276.980469 35.949219 274.039063 35.308594 270.121094 M 55.683594 250.265625 C 55.683594 247.339844 55.011719 245.066406 53.667969 243.449219 C 52.324219 241.839844 50.773438 241.027344 49.015625 241.027344 C 47.339844 241.027344 45.945313 241.691406 44.839844 243.015625 C 43.734375 244.339844 43.183594 246.511719 43.183594 249.523438 C 43.183594 252.582031 43.78125 254.824219 44.984375 256.257813 C 46.1875 257.6875 47.691406 258.402344 49.496094 258.402344 C 51.234375 258.402344 52.703125 257.71875 53.894531 256.339844 C 55.085938 254.960938 55.683594 252.933594 55.683594 250.265625 "/>
<path style=" stroke:none;fill-rule:nonzero;fill:rgb(24.299622%,37.298584%,61.199951%);fill-opacity:1;" d="M 494.003906 272.652344 L 494.003906 281.027344 L 462.003906 281.027344 C 462.351563 277.847656 463.390625 274.824219 465.125 271.972656 C 466.859375 269.121094 470.289063 265.339844 475.410156 260.625 C 479.53125 256.816406 482.058594 254.234375 482.992188 252.878906 C 484.246094 251.007813 484.878906 249.152344 484.878906 247.324219 C 484.878906 245.300781 484.320313 243.746094 483.210938 242.660156 C 482.097656 241.574219 480.5625 241.027344 478.605469 241.027344 C 476.667969 241.027344 475.128906 241.597656 473.984375 242.734375 C 472.839844 243.875 472.179688 245.765625 472.003906 248.402344 L 463.003906 247.503906 C 463.546875 242.523438 465.246094 238.949219 468.113281 236.78125 C 470.980469 234.613281 474.5625 233.527344 478.859375 233.527344 C 483.570313 233.527344 487.273438 234.789063 489.964844 237.308594 C 492.65625 239.828125 494.003906 242.964844 494.003906 246.710938 C 494.003906 248.84375 493.617188 250.875 492.84375 252.804688 C 492.070313 254.730469 490.84375 256.75 489.164063 258.859375 C 488.050781 260.261719 486.035156 262.273438 483.117188 264.898438 C 480.199219 267.527344 478.351563 269.273438 477.578125 270.136719 C 476.804688 270.996094 476.179688 271.835938 475.699219 272.652344 L 494.003906 272.652344 "/>
<g clip-path="url(#clip2)" clip-rule="nonzero">
<path style=" stroke:none;fill-rule:nonzero;fill:rgb(24.299622%,37.298584%,61.199951%);fill-opacity:1;" d="M 518.433594 281.027344 L 518.433594 271.527344 L 499.058594 271.527344 L 499.058594 263.683594 L 519.59375 233.527344 L 527.183594 233.527344 L 527.183594 263.652344 L 533.058594 263.652344 L 533.058594 271.527344 L 527.183594 271.527344 L 527.183594 281.027344 L 518.433594 281.027344 M 518.433594 263.652344 L 518.433594 247.402344 L 507.519531 263.652344 L 518.433594 263.652344 "/>
</g>
</g>
</svg>
